<mxfile host="app.diagrams.net" agent="Mozilla/5.0 (Windows NT 10.0; Win64; x64) AppleWebKit/537.36 (KHTML, like Gecko) Chrome/141.0.0.0 Safari/537.36" version="28.2.5">
  <diagram name="PÃ¡gina-1" id="pKiBWAQqA6CVJeAdgmXw">
    <mxGraphModel grid="1" page="1" gridSize="10" guides="1" tooltips="1" connect="1" arrows="1" fold="1" pageScale="1" pageWidth="827" pageHeight="1169" math="0" shadow="0">
      <root>
        <mxCell id="0" />
        <mxCell id="1" parent="0" />
        <mxCell id="YQrRjfU5tZ9RThso51NI-51" value="" style="html=1;points=[[0,0,0,0,5],[0,1,0,0,-5],[1,0,0,0,5],[1,1,0,0,-5]];perimeter=orthogonalPerimeter;outlineConnect=0;targetShapes=umlLifeline;portConstraint=eastwest;newEdgeStyle={&quot;curved&quot;:0,&quot;rounded&quot;:0};container=0;" vertex="1" parent="1">
          <mxGeometry x="-797" y="610" width="20" height="220" as="geometry" />
        </mxCell>
        <mxCell id="YQrRjfU5tZ9RThso51NI-1" value=":Sistema:" style="rounded=0;whiteSpace=wrap;html=1;" vertex="1" parent="1">
          <mxGeometry x="707" y="210" width="120" height="60" as="geometry" />
        </mxCell>
        <mxCell id="YQrRjfU5tZ9RThso51NI-2" value=":BD:" style="rounded=0;whiteSpace=wrap;html=1;" vertex="1" parent="1">
          <mxGeometry x="1390" y="210" width="120" height="60" as="geometry" />
        </mxCell>
        <mxCell id="YQrRjfU5tZ9RThso51NI-3" value="Usuario" style="shape=umlActor;verticalLabelPosition=bottom;verticalAlign=top;html=1;outlineConnect=0;" vertex="1" parent="1">
          <mxGeometry x="240" y="200" width="40" height="80" as="geometry" />
        </mxCell>
        <mxCell id="YQrRjfU5tZ9RThso51NI-8" value="" style="html=1;points=[[0,0,0,0,5],[0,1,0,0,-5],[1,0,0,0,5],[1,1,0,0,-5]];perimeter=orthogonalPerimeter;outlineConnect=0;targetShapes=umlLifeline;portConstraint=eastwest;newEdgeStyle={&quot;curved&quot;:0,&quot;rounded&quot;:0};" vertex="1" parent="1">
          <mxGeometry x="250" y="340" width="20" height="140" as="geometry" />
        </mxCell>
        <mxCell id="YQrRjfU5tZ9RThso51NI-11" value="" style="edgeStyle=orthogonalEdgeStyle;rounded=0;orthogonalLoop=1;jettySize=auto;html=1;dashed=1;endArrow=none;endFill=0;" edge="1" parent="1" source="YQrRjfU5tZ9RThso51NI-3">
          <mxGeometry relative="1" as="geometry">
            <mxPoint x="260" y="510" as="targetPoint" />
            <mxPoint x="259.8" y="320" as="sourcePoint" />
          </mxGeometry>
        </mxCell>
        <mxCell id="YQrRjfU5tZ9RThso51NI-21" style="edgeStyle=orthogonalEdgeStyle;rounded=0;orthogonalLoop=1;jettySize=auto;html=1;curved=0;" edge="1" parent="1" target="YQrRjfU5tZ9RThso51NI-15">
          <mxGeometry relative="1" as="geometry">
            <mxPoint x="1372.4999999999995" y="360" as="targetPoint" />
            <mxPoint x="780" y="370" as="sourcePoint" />
            <Array as="points">
              <mxPoint x="1260" y="370" />
              <mxPoint x="1260" y="370" />
            </Array>
          </mxGeometry>
        </mxCell>
        <mxCell id="YQrRjfU5tZ9RThso51NI-29" style="edgeStyle=orthogonalEdgeStyle;rounded=0;orthogonalLoop=1;jettySize=auto;html=1;curved=0;" edge="1" parent="1">
          <mxGeometry relative="1" as="geometry">
            <mxPoint x="266.5" y="440" as="targetPoint" />
            <mxPoint x="753.5" y="440" as="sourcePoint" />
          </mxGeometry>
        </mxCell>
        <mxCell id="YQrRjfU5tZ9RThso51NI-89" style="edgeStyle=orthogonalEdgeStyle;rounded=0;orthogonalLoop=1;jettySize=auto;html=1;curved=0;entryX=1;entryY=0;entryDx=0;entryDy=5;entryPerimeter=0;" edge="1" parent="1" source="YQrRjfU5tZ9RThso51NI-13" target="YQrRjfU5tZ9RThso51NI-51">
          <mxGeometry relative="1" as="geometry">
            <mxPoint x="352.5605044157609" y="720" as="targetPoint" />
            <Array as="points">
              <mxPoint x="370" y="615" />
              <mxPoint x="370" y="615" />
            </Array>
          </mxGeometry>
        </mxCell>
        <mxCell id="YQrRjfU5tZ9RThso51NI-13" value="" style="html=1;points=[[0,0,0,0,5],[0,1,0,0,-5],[1,0,0,0,5],[1,1,0,0,-5]];perimeter=orthogonalPerimeter;outlineConnect=0;targetShapes=umlLifeline;portConstraint=eastwest;newEdgeStyle={&quot;curved&quot;:0,&quot;rounded&quot;:0};" vertex="1" parent="1">
          <mxGeometry x="757" y="340" width="20" height="330" as="geometry" />
        </mxCell>
        <mxCell id="YQrRjfU5tZ9RThso51NI-14" value="" style="edgeStyle=orthogonalEdgeStyle;rounded=0;orthogonalLoop=1;jettySize=auto;html=1;dashed=1;endArrow=none;endFill=0;" edge="1" parent="1">
          <mxGeometry relative="1" as="geometry">
            <mxPoint x="767" y="700" as="targetPoint" />
            <mxPoint x="766.8" y="320" as="sourcePoint" />
          </mxGeometry>
        </mxCell>
        <mxCell id="YQrRjfU5tZ9RThso51NI-24" style="edgeStyle=orthogonalEdgeStyle;rounded=0;orthogonalLoop=1;jettySize=auto;html=1;curved=0;dashed=1;" edge="1" parent="1" source="YQrRjfU5tZ9RThso51NI-15" target="YQrRjfU5tZ9RThso51NI-13">
          <mxGeometry relative="1" as="geometry">
            <mxPoint x="1100" y="470" as="targetPoint" />
            <mxPoint x="1430" y="390" as="sourcePoint" />
            <Array as="points">
              <mxPoint x="1090" y="400" />
              <mxPoint x="1090" y="400" />
            </Array>
          </mxGeometry>
        </mxCell>
        <mxCell id="YQrRjfU5tZ9RThso51NI-15" value="" style="html=1;points=[[0,0,0,0,5],[0,1,0,0,-5],[1,0,0,0,5],[1,1,0,0,-5]];perimeter=orthogonalPerimeter;outlineConnect=0;targetShapes=umlLifeline;portConstraint=eastwest;newEdgeStyle={&quot;curved&quot;:0,&quot;rounded&quot;:0};" vertex="1" parent="1">
          <mxGeometry x="1440" y="340" width="20" height="70" as="geometry" />
        </mxCell>
        <mxCell id="YQrRjfU5tZ9RThso51NI-16" value="" style="edgeStyle=orthogonalEdgeStyle;rounded=0;orthogonalLoop=1;jettySize=auto;html=1;dashed=1;endArrow=none;endFill=0;" edge="1" parent="1">
          <mxGeometry relative="1" as="geometry">
            <mxPoint x="1450" y="410" as="targetPoint" />
            <mxPoint x="1449.4099999999999" y="320" as="sourcePoint" />
          </mxGeometry>
        </mxCell>
        <mxCell id="YQrRjfU5tZ9RThso51NI-18" value="ingresar_credenciales(nombre,mail,contrasenia)" style="text;html=1;align=center;verticalAlign=middle;resizable=0;points=[];autosize=1;strokeColor=none;fillColor=none;" vertex="1" parent="1">
          <mxGeometry x="370" y="320" width="280" height="30" as="geometry" />
        </mxCell>
        <mxCell id="YQrRjfU5tZ9RThso51NI-19" style="edgeStyle=orthogonalEdgeStyle;rounded=0;orthogonalLoop=1;jettySize=auto;html=1;curved=0;entryX=0;entryY=0;entryDx=0;entryDy=5;entryPerimeter=0;" edge="1" parent="1" source="YQrRjfU5tZ9RThso51NI-8" target="YQrRjfU5tZ9RThso51NI-13">
          <mxGeometry relative="1" as="geometry">
            <Array as="points">
              <mxPoint x="380" y="345" />
              <mxPoint x="380" y="345" />
            </Array>
          </mxGeometry>
        </mxCell>
        <mxCell id="YQrRjfU5tZ9RThso51NI-22" value="verificar_credenciales(nombre,mail,contrasenia)" style="text;html=1;align=center;verticalAlign=middle;resizable=0;points=[];autosize=1;strokeColor=none;fillColor=none;" vertex="1" parent="1">
          <mxGeometry x="905" y="350" width="280" height="30" as="geometry" />
        </mxCell>
        <mxCell id="YQrRjfU5tZ9RThso51NI-26" value="return(usuario)" style="text;html=1;align=center;verticalAlign=middle;resizable=0;points=[];autosize=1;strokeColor=none;fillColor=none;" vertex="1" parent="1">
          <mxGeometry x="960" y="378" width="100" height="30" as="geometry" />
        </mxCell>
        <mxCell id="YQrRjfU5tZ9RThso51NI-27" value="&lt;font style=&quot;font-size: 9px;&quot;&gt;if usuario false&amp;nbsp;&amp;nbsp;&lt;/font&gt;" style="shape=umlFrame;whiteSpace=wrap;html=1;pointerEvents=0;" vertex="1" parent="1">
          <mxGeometry x="130" y="420" width="1390" height="640" as="geometry" />
        </mxCell>
        <mxCell id="YQrRjfU5tZ9RThso51NI-30" value="mensaje_credenciales_inv()" style="text;html=1;align=center;verticalAlign=middle;resizable=0;points=[];autosize=1;strokeColor=none;fillColor=none;" vertex="1" parent="1">
          <mxGeometry x="445" y="410" width="170" height="30" as="geometry" />
        </mxCell>
        <mxCell id="YQrRjfU5tZ9RThso51NI-31" value="&lt;font style=&quot;font-size: 9px;&quot;&gt;else if&amp;nbsp;&amp;nbsp;&lt;/font&gt;&lt;div&gt;&lt;font style=&quot;font-size: 9px;&quot;&gt;rol de usuario = espectado&lt;/font&gt;r&lt;/div&gt;" style="text;html=1;align=center;verticalAlign=middle;resizable=0;points=[];autosize=1;strokeColor=none;fillColor=none;" vertex="1" parent="1">
          <mxGeometry x="130" y="550" width="130" height="40" as="geometry" />
        </mxCell>
        <mxCell id="YQrRjfU5tZ9RThso51NI-35" value="" style="endArrow=none;html=1;rounded=0;entryX=1.002;entryY=0.687;entryDx=0;entryDy=0;entryPerimeter=0;dashed=1;startSize=28;sourcePerimeterSpacing=5;curved=0;endSize=23;strokeWidth=5;" edge="1" parent="1">
          <mxGeometry width="50" height="50" relative="1" as="geometry">
            <mxPoint x="140" y="460" as="sourcePoint" />
            <mxPoint x="1522.7600000000002" y="460.5300000000002" as="targetPoint" />
          </mxGeometry>
        </mxCell>
        <mxCell id="YQrRjfU5tZ9RThso51NI-50" value="" style="endArrow=classic;html=1;rounded=0;entryX=0;entryY=0;entryDx=0;entryDy=5;entryPerimeter=0;dashed=1;" edge="1" parent="1" target="YQrRjfU5tZ9RThso51NI-8">
          <mxGeometry width="50" height="50" relative="1" as="geometry">
            <mxPoint x="250" y="440" as="sourcePoint" />
            <mxPoint x="240" y="350" as="targetPoint" />
            <Array as="points">
              <mxPoint x="240" y="440" />
              <mxPoint x="240" y="345" />
            </Array>
          </mxGeometry>
        </mxCell>
        <mxCell id="YQrRjfU5tZ9RThso51NI-62" value="" style="group" connectable="0" vertex="1" parent="1">
          <mxGeometry x="-1760" y="150" width="40" height="385" as="geometry" />
        </mxCell>
        <mxCell id="YQrRjfU5tZ9RThso51NI-63" value="" style="html=1;points=[[0,0,0,0,5],[0,1,0,0,-5],[1,0,0,0,5],[1,1,0,0,-5]];perimeter=orthogonalPerimeter;outlineConnect=0;targetShapes=umlLifeline;portConstraint=eastwest;newEdgeStyle={&quot;curved&quot;:0,&quot;rounded&quot;:0};" vertex="1" parent="YQrRjfU5tZ9RThso51NI-62">
          <mxGeometry x="10" y="135" width="20" height="220" as="geometry" />
        </mxCell>
        <mxCell id="YQrRjfU5tZ9RThso51NI-64" value="" style="edgeStyle=orthogonalEdgeStyle;rounded=0;orthogonalLoop=1;jettySize=auto;html=1;dashed=1;endArrow=none;endFill=0;" edge="1" parent="YQrRjfU5tZ9RThso51NI-62">
          <mxGeometry relative="1" as="geometry">
            <mxPoint x="20" y="385" as="targetPoint" />
            <mxPoint x="19.80000000000001" y="115" as="sourcePoint" />
          </mxGeometry>
        </mxCell>
        <mxCell id="YQrRjfU5tZ9RThso51NI-65" value="Productor/Editor" style="shape=umlActor;verticalLabelPosition=bottom;verticalAlign=top;html=1;outlineConnect=0;" vertex="1" parent="YQrRjfU5tZ9RThso51NI-62">
          <mxGeometry width="40" height="80" as="geometry" />
        </mxCell>
        <mxCell id="YQrRjfU5tZ9RThso51NI-66" value="" style="group" connectable="0" vertex="1" parent="1">
          <mxGeometry x="-1840" y="150" width="40" height="385" as="geometry" />
        </mxCell>
        <mxCell id="YQrRjfU5tZ9RThso51NI-67" value="" style="html=1;points=[[0,0,0,0,5],[0,1,0,0,-5],[1,0,0,0,5],[1,1,0,0,-5]];perimeter=orthogonalPerimeter;outlineConnect=0;targetShapes=umlLifeline;portConstraint=eastwest;newEdgeStyle={&quot;curved&quot;:0,&quot;rounded&quot;:0};" vertex="1" parent="YQrRjfU5tZ9RThso51NI-66">
          <mxGeometry x="10" y="135" width="20" height="220" as="geometry" />
        </mxCell>
        <mxCell id="YQrRjfU5tZ9RThso51NI-68" value="" style="edgeStyle=orthogonalEdgeStyle;rounded=0;orthogonalLoop=1;jettySize=auto;html=1;dashed=1;endArrow=none;endFill=0;" edge="1" parent="YQrRjfU5tZ9RThso51NI-66">
          <mxGeometry relative="1" as="geometry">
            <mxPoint x="20" y="385" as="targetPoint" />
            <mxPoint x="19.80000000000001" y="115" as="sourcePoint" />
          </mxGeometry>
        </mxCell>
        <mxCell id="YQrRjfU5tZ9RThso51NI-69" value="Programador" style="shape=umlActor;verticalLabelPosition=bottom;verticalAlign=top;html=1;outlineConnect=0;" vertex="1" parent="YQrRjfU5tZ9RThso51NI-66">
          <mxGeometry width="40" height="80" as="geometry" />
        </mxCell>
        <mxCell id="YQrRjfU5tZ9RThso51NI-70" value="" style="group" connectable="0" vertex="1" parent="1">
          <mxGeometry x="-1920" y="150" width="40" height="385" as="geometry" />
        </mxCell>
        <mxCell id="YQrRjfU5tZ9RThso51NI-71" value="" style="html=1;points=[[0,0,0,0,5],[0,1,0,0,-5],[1,0,0,0,5],[1,1,0,0,-5]];perimeter=orthogonalPerimeter;outlineConnect=0;targetShapes=umlLifeline;portConstraint=eastwest;newEdgeStyle={&quot;curved&quot;:0,&quot;rounded&quot;:0};" vertex="1" parent="YQrRjfU5tZ9RThso51NI-70">
          <mxGeometry x="10" y="135" width="20" height="220" as="geometry" />
        </mxCell>
        <mxCell id="YQrRjfU5tZ9RThso51NI-72" value="" style="edgeStyle=orthogonalEdgeStyle;rounded=0;orthogonalLoop=1;jettySize=auto;html=1;dashed=1;endArrow=none;endFill=0;" edge="1" parent="YQrRjfU5tZ9RThso51NI-70">
          <mxGeometry relative="1" as="geometry">
            <mxPoint x="20" y="385" as="targetPoint" />
            <mxPoint x="19.80000000000001" y="115" as="sourcePoint" />
          </mxGeometry>
        </mxCell>
        <mxCell id="YQrRjfU5tZ9RThso51NI-73" value="Admin" style="shape=umlActor;verticalLabelPosition=bottom;verticalAlign=top;html=1;outlineConnect=0;" vertex="1" parent="YQrRjfU5tZ9RThso51NI-70">
          <mxGeometry width="40" height="80" as="geometry" />
        </mxCell>
        <mxCell id="YQrRjfU5tZ9RThso51NI-55" value="Espectador" style="shape=umlActor;verticalLabelPosition=bottom;verticalAlign=top;html=1;outlineConnect=0;container=0;" vertex="1" parent="1">
          <mxGeometry x="-807" y="200" width="40" height="80" as="geometry" />
        </mxCell>
        <mxCell id="YQrRjfU5tZ9RThso51NI-52" value="" style="edgeStyle=orthogonalEdgeStyle;rounded=0;orthogonalLoop=1;jettySize=auto;html=1;dashed=1;endArrow=none;endFill=0;" edge="1" parent="1" source="YQrRjfU5tZ9RThso51NI-55">
          <mxGeometry relative="1" as="geometry">
            <mxPoint x="-787" y="1120" as="targetPoint" />
            <mxPoint x="-777.2" y="387.2077922077922" as="sourcePoint" />
            <Array as="points">
              <mxPoint x="-787" y="1110" />
            </Array>
          </mxGeometry>
        </mxCell>
        <mxCell id="YQrRjfU5tZ9RThso51NI-91" value="mostrar_pagina_principal(espectador)" style="text;html=1;align=center;verticalAlign=middle;resizable=0;points=[];autosize=1;strokeColor=none;fillColor=none;" vertex="1" parent="1">
          <mxGeometry x="-510" y="590" width="230" height="30" as="geometry" />
        </mxCell>
      </root>
    </mxGraphModel>
  </diagram>
</mxfile>
